<svg xmlns="http://www.w3.org/2000/svg" viewBox="0 0 1200 360">
<defs><linearGradient id="s" x1="0" y1="0" x2="0" y2="1"><stop stop-color="#77c9f5"/><stop offset=".58" stop-color="#cceeff"/><stop offset="1" stop-color="#dff4df"/></linearGradient></defs>
<rect width="1200" height="360" rx="34" fill="url(#s)"/><circle cx="790" cy="90" r="35" fill="#fffbd5"/><g fill="#fff" opacity=".84"><ellipse cx="300" cy="105" rx="68" ry="26"/><ellipse cx="355" cy="115" rx="60" ry="22"/><ellipse cx="610" cy="86" rx="72" ry="25"/></g><path d="M0 272 170 220 330 265 520 216 720 275 900 224 1200 264V360H0Z" fill="#7cb996" opacity=".60"/><path d="M0 292c210-49 378 3 560-17s360-26 640 12v73H0Z" fill="#66aa68"/><g fill="#7190a7" opacity=".66"><rect x="930" y="210" width="22" height="65"/><rect x="958" y="190" width="30" height="85"/><rect x="997" y="220" width="18" height="55"/><rect x="1023" y="200" width="28" height="75"/><rect x="1060" y="228" width="18" height="47"/></g></svg>