<svg xmlns="http://www.w3.org/2000/svg" width="1280" height="720" viewBox="0 0 1280 720">
  <rect width="1280" height="720" fill="#eef1f6"/>
  <rect x="80" y="54" width="1120" height="612" rx="44" fill="#f8f9fb"/>
  <rect x="116" y="88" width="1048" height="96" rx="26" fill="#fff" stroke="#dfe3eb"/>
  <text x="150" y="132" font-family="Arial,sans-serif" font-size="26" font-weight="700" fill="#15171c">RUDI</text>
  <text x="150" y="160" font-family="Arial,sans-serif" font-size="15" fill="#7b818c">Наше приложение для повседневных дел</text>
  <rect x="116" y="208" width="328" height="210" rx="28" fill="#131720"/>
  <text x="146" y="254" font-family="Arial,sans-serif" font-size="20" font-weight="700" fill="#fff">Рустам</text>
  <text x="146" y="290" font-family="Arial,sans-serif" font-size="14" fill="#aab2c1">Личная сводка</text>
  <rect x="464" y="208" width="328" height="210" rx="28" fill="#fff" stroke="#dfe3eb"/>
  <text x="494" y="254" font-family="Arial,sans-serif" font-size="20" font-weight="700" fill="#15171c">Быстрый доступ</text>
  <rect x="494" y="290" width="268" height="42" rx="14" fill="#fff1f7"/><text x="512" y="317" font-family="Arial,sans-serif" font-size="14" fill="#15171c">♡ Вишлист</text>
  <rect x="494" y="346" width="268" height="42" rx="14" fill="#eef1ff"/><text x="512" y="373" font-family="Arial,sans-serif" font-size="14" fill="#15171c">⌁ Идеи свидания</text>
  <rect x="812" y="208" width="352" height="210" rx="28" fill="#fff" stroke="#dfe3eb"/>
  <text x="842" y="254" font-family="Arial,sans-serif" font-size="20" font-weight="700" fill="#15171c">Календарь</text>
  <g fill="#eef1ff"><rect x="842" y="288" width="42" height="42" rx="12"/><rect x="894" y="288" width="42" height="42" rx="12"/><rect x="946" y="288" width="42" height="42" rx="12"/><rect x="998" y="288" width="42" height="42" rx="12"/><rect x="1050" y="288" width="42" height="42" rx="12"/></g>
  <rect x="116" y="442" width="1048" height="118" rx="28" fill="#fff" stroke="#dfe3eb"/>
  <text x="150" y="485" font-family="Arial,sans-serif" font-size="18" font-weight="700" fill="#15171c">Лента · Кухня · Фото · Вишлист · Умный дом</text>
  <text x="150" y="520" font-family="Arial,sans-serif" font-size="14" fill="#7b818c">Всё нужное в одном PWA, с быстрым доступом и сохранением состояния.</text>
  <rect x="116" y="586" width="1048" height="54" rx="22" fill="#0b0d12"/>
  <text x="640" y="620" text-anchor="middle" font-family="Arial,sans-serif" font-size="15" font-weight="700" fill="#fff">RUDI</text>
</svg>